<svg xmlns="http://www.w3.org/2000/svg" width="273.47" height="273.205" viewBox="0 0 273.47 273.205">
  <path id="Tracé_1" data-name="Tracé 1" d="M267.818,4.391c-16.656-7.434-35.962-4.177-55.828,9.422a127.662,127.662,0,0,0-24.664,22.356L27.575,213.452c-1.385,1.534-10.225,13.384-8.691,14.768S31.739,220,33.123,218.464L78.511,168.2l14.263,12.879L84.44,196.06A105.634,105.634,0,0,1,63.382,222.7l-5.669,5.183a113.116,113.116,0,0,0-22.185,27.877l-1.9,3.357a13.981,13.981,0,1,1-22.548-16.247l22.039-24.407c1.385-1.531-10.745,9.4-12.279,8.02s8.114-14.565,6.731-13.032L5.534,237.859A21.463,21.463,0,0,0,21.42,273.7a21.8,21.8,0,0,0,3.48-.282A21.36,21.36,0,0,0,40.143,262.8l1.9-3.357A105.575,105.575,0,0,1,62.76,233.4l5.667-5.183A113.03,113.03,0,0,0,90.975,199.7l9.36-16.825,5.2-3.639a11.058,11.058,0,0,1,11.5-.745,10.034,10.034,0,0,0,12.093-2.17l2.558-2.833a7.388,7.388,0,0,0-.53-10.422l-5.362-4.843,1.446-1.6a1.225,1.225,0,0,1,1.523-.246l29.592,16.752a9.666,9.666,0,0,0,12.164-2.2c33.687-40.107,60.836-77.621,80.7-111.511l1.669-2.873c.017-.025,10.228-18.767,10.242-18.794l-4.047-1.573c.84-1.527-3.607,11.008-5.056,9.664l2.442,2.4,2.613-12.065c-1.809-1-1.618-3.632-2.613-1.824L246.4,52.817l-1.642,2.823c-19.646,33.518-46.552,70.686-79.968,110.474a2.194,2.194,0,0,1-2.756.5l-29.592-16.752a8.657,8.657,0,0,0-10.756,1.742l-1.446,1.6L104.53,139.015,192.94,41.11c.046-.05.09-.1.134-.156A121.345,121.345,0,0,1,216.21,19.985c17.864-12.224,34.2-15.172,48.559-8.763a2.149,2.149,0,0,1,1.064,2.737c-1.6,4.066-4.525,10.9-9.362,20.386a3.738,3.738,0,0,0,6.66,3.4c4.972-9.748,8-16.823,9.658-21.044a9.585,9.585,0,0,0-4.972-12.308ZM123.579,171.307a2.558,2.558,0,0,1-3.08.553,18.518,18.518,0,0,0-19.254,1.246l-3.466,2.426-5.654-5.105-8.606-7.772L99.7,144.732l26.368,23.814Zm0,0" transform="translate(-0.001 -0.499)"/>
</svg>
